:FULLY-SPECIFIED
:FORCE-ALL-JOINTS-BE-3DOF
:DEGREES
781
root 1.63852 16.3536 18.6287 -14.1927 76.9396 339.751
lfemur -36.6098 13.2972 -14.2399
ltibia 50.3432 0 0
lfoot -21.8524 20.3393 0
ltoes 16.1975 0 0
rfemur -15.8424 -22.6865 21.4152
rtibia 52.0051 0 0
rfoot -17.871 -32.2718 0
rtoes -25.1295 0 0
lowerback 1.21964 4.64412 -0.92396
upperback -0.86892 6.17012 -3.79669
thorax -1.24515 3.09683 -3.50498
lowerneck -5.34031 -6.62811 -0.661026
upperneck -2.42784 -8.72239 5.12237
head 0.407246 -4.28959 1.50919
lclavicle 6.02728e-15 1.41437e-16 0
lhumerus -55.6553 -11.7086 94.7316
lradius 70.5469 0 0
lwrist 12.9871 0 0
lhand -21.1021 -5.023 0
lfingers 7.12502 0 0
lthumb 5.27488 24.8768 0
rclavicle 6.02728e-15 1.41437e-16 0
rhumerus -30.7892 47.8174 -112.131
rradius 79.9424 0 0
rwrist 5.89367 0 0
rhand -23.8031 -20.1628 0
rfingers 7.12502 0 0
rthumb 2.66734 -770.122 0
782
root 1.65402 16.3553 18.7002 -14.1532 76.5314 339.921
lfemur -36.4478 13.2388 -14.2639
ltibia 50.239 0 0
lfoot -21.7405 20.0193 0
ltoes 16.239 0 0
rfemur -16.1293 -22.5449 21.3187
rtibia 51.9682 0 0
rfoot -17.7247 -32.0416 0
rtoes -25.0602 0 0
lowerback 1.29809 4.60326 -0.945343
upperback -0.834394 6.11224 -3.77823
thorax -1.25415 3.06789 -3.47068
lowerneck -5.34965 -6.60491 -0.639948
upperneck -2.35939 -8.69618 5.10957
head 0.429558 -4.27531 1.50154
lclavicle 6.06284e-15 2.91061e-16 0
lhumerus -55.5211 -11.7802 94.6385
lradius 70.4531 0 0
lwrist 13.0557 0 0
lhand -20.9109 -4.96083 0
lfingers 7.12502 0 0
lthumb 5.45852 24.9193 0
rclavicle 6.06284e-15 2.91061e-16 0
rhumerus -30.9221 47.4898 -111.732
rradius 79.7558 0 0
rwrist 5.86349 0 0
rhand -23.6901 -20.2286 0
rfingers 7.12502 0 0
rthumb 2.77631 -770.182 0
783
root 1.67052 16.357 18.776 -14.116 76.0999 340.096
lfemur -36.2769 13.1777 -14.2898
ltibia 50.1284 0 0
lfoot -21.6212 19.6781 0
ltoes 16.2867 0 0
rfemur -16.4314 -22.3935 21.2125
rtibia 51.9261 0 0
rfoot -17.5702 -31.8001 0
rtoes -24.9843 0 0
lowerback 1.38073 4.55994 -0.967723
upperback -0.798025 6.05098 -3.75841
thorax -1.26369 3.03725 -3.43428
lowerneck -5.35946 -6.5805 -0.617666
upperneck -2.28626 -8.66863 5.09605
head 0.453403 -4.26027 1.49345
lclavicle 6.07109e-15 4.48605e-16 0
lhumerus -55.3789 -11.8549 94.5395
lradius 70.3526 0 0
lwrist 13.1279 0 0
lhand -20.7087 -4.89561 0
lfingers 7.12502 0 0
lthumb 5.65271 24.9639 0
rclavicle 6.07109e-15 4.48605e-16 0
rhumerus -31.0631 47.1449 -111.308
rradius 79.5569 0 0
rwrist 5.83331 0 0
rhand -23.5681 -20.2987 0
rfingers 7.12502 0 0
rthumb 2.89394 -770.246 0
784
root 1.68797 16.3588 18.8559 -14.0811 75.6458 340.276
lfemur -36.0972 13.1139 -14.3176
ltibia 50.0117 0 0
lfoot -21.4947 19.3164 0
ltoes 16.3404 0 0
rfemur -16.7483 -22.2326 21.097
rtibia 51.8789 0 0
rfoot -17.4077 -31.5475 0
rtoes -24.9021 0 0
lowerback 1.46747 4.51422 -0.991082
upperback -0.759856 5.98642 -3.73729
thorax -1.27376 3.00497 -3.39583
lowerneck -5.36973 -6.55488 -0.59421
upperneck -2.20857 -8.63976 5.08183
head 0.478739 -4.2445 1.48492
lclavicle 6.05286e-15 6.13804e-16 0
lhumerus -55.2288 -11.9327 94.4346
lradius 70.2456 0 0
lwrist 13.2035 0 0
lhand -20.4958 -4.8274 0
lfingers 7.12502 0 0
lthumb 5.85718 25.0106 0
rclavicle 6.05286e-15 6.13804e-16 0
rhumerus -31.212 46.783 -110.862
rradius 79.3458 0 0
rwrist 5.8031 0 0
rhand -23.4374 -20.373 0
rfingers 7.12502 0 0
rthumb 3.01997 -770.313 0
785
root 1.70635 16.3606 18.94 -14.0485 75.1697 340.461
lfemur -35.909 13.0476 -14.3471
ltibia 49.889 0 0
lfoot -21.3611 18.9348 0
ltoes 16.4 0 0
rfemur -17.0797 -22.0624 20.9724
rtibia 51.8268 0 0
rfoot -17.2374 -31.2841 0
rtoes -24.8138 0 0
lowerback 1.5582 4.46615 -1.0154
upperback -0.719929 5.91865 -3.71489
thorax -1.28435 2.97107 -3.35538
lowerneck -5.38045 -6.52809 -0.569611
upperneck -2.12646 -8.60961 5.06694
head 0.505526 -4.228 1.47598
lclavicle 6.00902e-15 7.86392e-16 0
lhumerus -55.0711 -12.0135 94.3242
lradius 70.1322 0 0
lwrist 13.2825 0 0
lhand -20.2725 -4.75628 0
lfingers 7.12502 0 0
lthumb 6.07169 25.0594 0
rclavicle 6.00902e-15 7.86392e-16 0
rhumerus -31.3686 46.4046 -110.392
rradius 79.1229 0 0
rwrist 5.77283 0 0
rhand -23.2982 -20.4514 0
rfingers 7.12502 0 0
rthumb 3.15417 -770.384 0
786
root 1.72565 16.3626 19.0279 -14.018 74.672 340.651
lfemur -35.7125 12.9787 -14.3784
ltibia 49.7605 0 0
lfoot -21.2208 18.5337 0
ltoes 16.4652 0 0
rfemur -17.4252 -21.8833 20.839
rtibia 51.7701 0 0
rfoot -17.0594 -31.0101 0
rtoes -24.7194 0 0
lowerback 1.65283 4.41581 -1.04067
upperback -0.678287 5.84775 -3.69126
thorax -1.29544 2.93561 -3.31299
lowerneck -5.39161 -6.50017 -0.543899
upperneck -2.04004 -8.57822 5.05139
head 0.533723 -4.21081 1.46663
lclavicle 5.94041e-15 9.66104e-16 0
lhumerus -54.9059 -12.0973 94.2083
lradius 70.0125 0 0
lwrist 13.3648 0 0
lhand -20.039 -4.68231 0
lfingers 7.12502 0 0
lthumb 6.29601 25.1101 0
rclavicle 5.94041e-15 9.66104e-16 0
rhumerus -31.5326 46.0101 -109.9
rradius 78.8885 0 0
rwrist 5.74248 0 0
rhand -23.1508 -20.5337 0
rfingers 7.12502 0 0
rthumb 3.2963 -770.459 0
787
root 1.74583 16.3646 19.1197 -13.9898 74.1535 340.846
lfemur -35.5078 12.9075 -14.4115
ltibia 49.6263 0 0
lfoot -21.0738 18.1138 0
ltoes 16.536 0 0
rfemur -17.7845 -21.6955 20.6972
rtibia 51.7087 0 0
rfoot -16.8741 -30.7257 0
rtoes -24.6193 0 0
lowerback 1.75127 4.36325 -1.06686
upperback -0.634974 5.7738 -3.66644
thorax -1.30702 2.89863 -3.26871
lowerneck -5.4032 -6.47113 -0.517105
upperneck -1.94945 -8.5456 5.0352
head 0.563287 -4.19292 1.45688
lclavicle 5.8479e-15 1.15267e-15 0
lhumerus -54.7334 -12.1839 94.087
lradius 69.8869 0 0
lwrist 13.4503 0 0
lhand -19.7956 -4.60557 0
lfingers 7.12502 0 0
lthumb 6.52987 25.1628 0
rclavicle 5.8479e-15 1.15267e-15 0
rhumerus -31.7039 45.5998 -109.387
rradius 78.643 0 0
rwrist 5.71203 0 0
rhand -22.9955 -20.62 0
rfingers 7.12502 0 0
rthumb 3.44611 -770.537 0
788
root 1.76687 16.3667 19.2152 -13.9636 73.6146 341.045
lfemur -35.2953 12.8338 -14.4462
ltibia 49.4867 0 0
lfoot -20.9203 17.6755 0
ltoes 16.612 0 0
rfemur -18.1573 -21.4993 20.5472
rtibia 51.6431 0 0
rfoot -16.6815 -30.4313 0
rtoes -24.5136 0 0
lowerback 1.85341 4.30853 -1.09396
upperback -0.590032 5.69687 -3.64045
thorax -1.31909 2.86016 -3.22258
lowerneck -5.41521 -6.44102 -0.489257
upperneck -1.85481 -8.5118 5.01839
head 0.594178 -4.17437 1.44675
lclavicle 5.73233e-15 1.34583e-15 0
lhumerus -54.5539 -12.2734 93.9606
lradius 69.7555 0 0
lwrist 13.5389 0 0
lhand -19.5426 -4.52611 0
lfingers 7.12502 0 0
lthumb 6.77304 25.2174 0
rclavicle 5.73233e-15 1.34583e-15 0
rhumerus -31.8823 45.1741 -108.852
rradius 78.3867 0 0
rwrist 5.68145 0 0
rhand -22.8324 -20.7099 0
rfingers 7.12502 0 0
rthumb 3.60337 -770.619 0
789
root 1.78875 16.3689 19.3144 -13.9396 73.056 341.248
lfemur -35.0752 12.758 -14.4826
ltibia 49.3417 0 0
lfoot -20.7607 17.2195 0
ltoes 16.6931 0 0
rfemur -18.5431 -21.295 20.3893
rtibia 51.5733 0 0
rfoot -16.4818 -30.127 0
rtoes -24.4025 0 0
lowerback 1.95918 4.25171 -1.12195
upperback -0.543503 5.61706 -3.61334
thorax -1.33162 2.82025 -3.17467
lowerneck -5.42763 -6.40985 -0.460387
upperneck -1.75625 -8.47685 5.00098
head 0.626354 -4.15518 1.43625
lclavicle 5.59457e-15 1.54532e-15 0
lhumerus -54.3675 -12.3656 93.8291
lradius 69.6184 0 0
lwrist 13.6306 0 0
lhand -19.2801 -4.44403 0
lfingers 7.12502 0 0
lthumb 7.02528 25.2739 0
rclavicle 5.59457e-15 1.54532e-15 0
rhumerus -32.0674 44.7334 -108.297
rradius 78.1199 0 0
rwrist 5.65073 0 0
rhand -22.6618 -20.8035 0
rfingers 7.12502 0 0
rthumb 3.76783 -770.703 0
790
root 1.81144 16.3711 19.4171 -13.9175 72.4783 341.456
lfemur -34.8476 12.68 -14.5206
ltibia 49.1915 0 0
lfoot -20.595 16.7462 0
ltoes 16.7792 0 0
rfemur -18.9418 -21.0828 20.2239
rtibia 51.4995 0 0
rfoot -16.2754 -29.8132 0
rtoes -24.2862 0 0
lowerback 2.06846 4.19286 -1.15081
upperback -0.495432 5.53445 -3.58516
thorax -1.34461 2.77893 -3.12502
lowerneck -5.44045 -6.37766 -0.430526
upperneck -1.65389 -8.44078 4.983
head 0.659775 -4.13535 1.42539
lclavicle 5.43545e-15 1.75087e-15 0
lhumerus -54.1745 -12.4606 93.6928
lradius 69.4759 0 0
lwrist 13.7252 0 0
lhand -19.0084 -4.35937 0
lfingers 7.12502 0 0
lthumb 7.28632 25.3321 0
rclavicle 5.43545e-15 1.75087e-15 0
rhumerus -32.2593 44.2782 -107.722
rradius 77.8429 0 0
rwrist 5.61982 0 0
rhand -22.4841 -20.9006 0
rfingers 7.12502 0 0
rthumb 3.93925 -770.791 0
791
root 1.83492 16.3735 19.5232 -13.8974 71.8821 341.668
lfemur -34.6128 12.5999 -14.5601
ltibia 49.0363 0 0
lfoot -20.4235 16.2564 0
ltoes 16.87 0 0
rfemur -19.3529 -20.8631 20.0512
rtibia 51.4219 0 0
rfoot -16.0623 -29.4901 0
rtoes -24.1648 0 0
lowerback 2.18118 4.13203 -1.18053
upperback -0.44586 5.44911 -3.55592
thorax -1.35804 2.73625 -3.07368
lowerneck -5.45365 -6.34448 -0.399702
upperneck -1.54786 -8.40361 4.96446
head 0.694398 -4.11491 1.41418
lclavicle 5.25585e-15 1.96222e-15 0
lhumerus -53.975 -12.5582 93.5517
lradius 69.328 0 0
lwrist 13.8227 0 0
lhand -18.7279 -4.27221 0
lfingers 7.12502 0 0
lthumb 7.55594 25.3921 0
rclavicle 5.25585e-15 1.96222e-15 0
rhumerus -32.4575 43.8087 -107.128
rradius 77.5561 0 0
rwrist 5.58871 0 0
rhand -22.2993 -21.0012 0
rfingers 7.12502 0 0
rthumb 4.11739 -770.882 0
792
root 1.85916 16.3758 19.6326 -13.8793 71.2678 341.883
lfemur -34.371 12.5178 -14.6012
ltibia 48.8763 0 0
lfoot -20.2464 15.7504 0
ltoes 16.9653 0 0
rfemur -19.776 -20.636 19.8716
rtibia 51.3406 0 0
rfoot -15.8428 -29.158 0
rtoes -24.0385 0 0
lowerback 2.29722 4.06929 -1.21108
upperback -0.394832 5.36113 -3.52568
thorax -1.3719 2.69225 -3.02072
lowerneck -5.46723 -6.31034 -0.367947
upperneck -1.43829 -8.36538 4.94537
head 0.730184 -4.09388 1.40263
lclavicle 5.0566e-15 2.17909e-15 0
lhumerus -53.7692 -12.6584 93.4061
lradius 69.1751 0 0
lwrist 13.923 0 0
lhand -18.4386 -4.18263 0
lfingers 7.12502 0 0
lthumb 7.83388 25.4537 0
rclavicle 5.0566e-15 2.17909e-15 0
rhumerus -32.662 43.3255 -106.515
rradius 77.2597 0 0
rwrist 5.55738 0 0
rhand -22.1079 -21.105 0
rfingers 7.12502 0 0
rthumb 4.30201 -770.976 0
793
root 1.88414 16.3783 19.7452 -13.863 70.6362 342.103
lfemur -34.1225 12.4338 -14.6437
ltibia 48.7117 0 0
lfoot -20.0638 15.2289 0
ltoes 17.065 0 0
rfemur -20.211 -20.4019 19.6853
rtibia 51.256 0 0
rfoot -15.6171 -28.8171 0
rtoes -23.9076 0 0
lowerback 2.41649 4.00469 -1.24245
upperback -0.342388 5.27058 -3.49448
thorax -1.38619 2.64697 -2.96617
lowerneck -5.48117 -6.27526 -0.33529
upperneck -1.3253 -8.32613 4.92577
head 0.76709 -4.07227 1.39076
lclavicle 4.83857e-15 2.40123e-15 0
lhumerus -53.5573 -12.7611 93.256
lradius 69.0173 0 0
lwrist 14.0259 0 0
lhand -18.141 -4.09069 0
lfingers 7.12502 0 0
lthumb 8.1199 25.517 0
rclavicle 4.83857e-15 2.40123e-15 0
rhumerus -32.8725 42.8288 -105.883
rradius 76.9542 0 0
rwrist 5.5258 0 0
rhand -21.9099 -21.212 0
rfingers 7.12502 0 0
rthumb 4.49287 -771.073 0
